<?xml version="1.0" standalone="no"?>
<!DOCTYPE svg PUBLIC "-//W3C//DTD SVG 20010904//EN"
 "http://www.w3.org/TR/2001/REC-SVG-20010904/DTD/svg10.dtd">
<svg version="1.0" xmlns="http://www.w3.org/2000/svg"
 width="1000.000000pt" height="1000.000000pt" viewBox="0 0 1000.000000 1000.000000"
 preserveAspectRatio="xMidYMid meet">

<g transform="translate(0.000000,1000.000000) scale(0.100000,-0.100000)"
fill="#000000" stroke="none">
<path d="M4925 9016 c-94 -46 -145 -122 -147 -219 -2 -77 22 -128 87 -185 l45
-40 -2 -198 -3 -199 -320 -7 c-333 -7 -419 -11 -545 -28 -106 -14 -139 -21
-146 -31 -3 -5 -16 -9 -30 -9 -22 0 -90 -26 -139 -53 -11 -6 -33 -17 -49 -25
-160 -81 -364 -266 -472 -430 -54 -81 -141 -256 -152 -305 -1 -4 -9 -24 -17
-44 -39 -94 -49 -205 -52 -578 -2 -398 -23 -1418 -29 -1450 -8 -38 -24 -280
-29 -435 -3 -85 -8 -168 -11 -185 -10 -57 -24 -291 -30 -475 -3 -102 -10 -198
-15 -215 -5 -16 -9 -84 -10 -150 -1 -105 1 -125 20 -162 25 -50 37 -53 54 -15
40 91 179 274 296 389 39 38 43 47 37 76 -7 32 -8 56 -26 422 -6 116 -13 217
-15 225 -2 8 -9 105 -15 215 -13 249 -19 334 -31 410 -5 33 -9 429 -9 880 0
800 1 822 21 910 12 50 30 108 40 131 10 22 19 47 19 56 0 9 7 21 15 28 8 7
15 20 15 29 0 10 11 32 25 51 14 19 25 38 25 42 0 19 89 128 169 208 84 84
159 142 199 154 11 4 26 13 32 21 7 8 20 15 29 15 10 0 32 11 51 25 19 14 41
25 49 25 9 0 28 6 43 14 15 8 76 24 136 35 105 20 138 21 968 21 890 -1 860 0
1039 -40 46 -10 198 -75 237 -102 14 -10 31 -18 38 -18 31 0 261 -215 307
-287 10 -16 20 -30 23 -33 8 -8 37 -61 71 -130 49 -102 56 -121 69 -180 7 -30
18 -66 24 -79 8 -17 11 -254 11 -835 l0 -811 -22 -48 c-13 -27 -23 -57 -23
-68 0 -19 -69 -170 -108 -236 -32 -54 -137 -185 -184 -229 -88 -82 -175 -145
-253 -183 -28 -13 -66 -33 -86 -43 -20 -10 -46 -18 -56 -18 -11 0 -34 -7 -51
-15 -59 -30 -173 -37 -763 -46 -433 -6 -607 -12 -635 -21 -46 -15 -84 -67 -84
-113 0 -43 33 -83 89 -107 45 -19 57 -19 491 -9 708 17 732 19 897 71 34 11
67 20 74 20 13 0 67 23 144 61 22 10 43 19 47 19 14 0 145 86 223 146 151 116
288 288 380 474 20 41 40 83 46 92 5 10 9 24 9 32 0 7 9 35 19 62 10 27 30 95
42 150 l24 102 36 5 c111 15 232 109 286 224 l28 58 0 315 c0 346 -1 353 -62
441 -64 93 -135 142 -225 155 -26 4 -52 12 -57 18 -4 6 -11 63 -14 126 -12
273 -98 532 -245 740 -69 98 -237 264 -328 325 -90 60 -250 143 -298 156 -30
7 -91 23 -186 49 -30 8 -178 14 -453 17 -297 4 -409 8 -412 16 -2 7 -6 94 -9
194 l-6 182 64 63 c72 71 92 119 82 202 -5 49 -39 118 -72 148 -35 31 -106 61
-153 65 -34 3 -58 -2 -96 -21z"/>
<path d="M2398 7899 c-17 -9 -18 -47 -18 -560 l0 -550 -26 -25 c-28 -29 -64
-27 -97 5 -16 16 -18 56 -20 571 l-2 555 -30 0 -30 0 -5 -558 -5 -559 -24 -19
c-27 -22 -40 -23 -74 -8 -19 9 -26 21 -31 58 -3 25 -6 277 -6 560 0 283 -3
518 -6 522 -8 13 -60 11 -72 -3 -6 -8 -12 -102 -15 -228 -3 -118 -10 -262 -16
-320 -13 -116 -30 -413 -37 -619 -5 -141 -6 -140 49 -249 21 -42 80 -103 180
-187 26 -22 62 -62 80 -90 l32 -50 -2 -172 c-2 -174 -4 -229 -23 -533 -6 -91
-15 -246 -20 -345 -5 -99 -15 -243 -20 -320 -6 -77 -13 -187 -15 -245 -6 -139
-14 -260 -26 -400 -18 -206 -22 -449 -8 -499 27 -95 138 -172 227 -157 47 7
115 62 143 116 23 42 24 54 22 210 -2 220 -10 414 -21 530 -6 52 -13 165 -17
250 -3 85 -11 216 -16 290 -5 74 -12 158 -14 185 -2 28 -6 136 -10 240 -4 105
-11 244 -16 310 -6 66 -13 205 -16 308 -5 169 -4 193 13 230 28 63 61 102 144
169 41 33 91 81 111 107 42 55 83 147 75 168 -4 9 -1 22 5 29 8 9 9 34 5 72
-4 31 -6 87 -6 123 1 36 -4 105 -10 154 -6 49 -15 168 -20 264 -5 97 -12 203
-15 236 -2 33 -10 143 -17 245 l-13 185 -29 3 c-16 2 -32 -2 -37 -10 -5 -7 -9
-259 -9 -559 l0 -546 -24 -22 c-19 -18 -31 -22 -53 -16 -56 14 -53 -15 -53
586 0 542 -1 559 -19 569 -23 12 -22 12 -43 -1z"/>
<path d="M4375 7570 c-22 -5 -78 -15 -125 -23 -93 -17 -172 -43 -210 -70 -13
-9 -28 -17 -33 -17 -18 0 -157 -104 -223 -167 -129 -123 -250 -321 -270 -443
-3 -19 -12 -65 -20 -102 -11 -52 -14 -163 -15 -495 0 -403 4 -504 21 -528 4
-5 10 -31 13 -56 19 -145 183 -401 322 -504 22 -17 42 -32 45 -35 7 -9 160
-94 192 -108 89 -38 185 -62 288 -71 144 -14 1297 -14 1400 -1 94 13 180 41
278 92 100 52 145 84 212 150 173 169 256 330 295 568 21 132 21 780 0 961
-35 296 -176 524 -432 697 -95 65 -243 123 -361 144 -79 13 -1314 21 -1377 8z
m830 -232 c28 -6 75 -25 106 -43 l56 -33 45 28 c25 16 63 34 85 40 60 18 178
8 238 -19 56 -26 151 -104 160 -129 5 -16 48 -42 68 -42 5 0 35 -18 66 -40 99
-69 170 -190 171 -290 0 -55 0 -55 64 -113 113 -100 167 -253 140 -395 -7 -40
-22 -91 -32 -115 -11 -23 -22 -49 -25 -57 -4 -8 -12 -23 -19 -32 -10 -15 -10
-22 1 -40 51 -79 77 -187 68 -271 -10 -78 -75 -201 -147 -276 -33 -34 -60 -71
-60 -81 0 -32 -32 -92 -77 -146 -103 -124 -269 -178 -371 -119 l-42 24 -58
-26 c-46 -22 -74 -27 -147 -29 -108 -3 -168 17 -244 83 -66 57 -81 93 -81 195
0 45 -4 88 -8 93 -17 24 -56 35 -121 35 -39 0 -73 5 -76 10 -3 6 -16 10 -28
10 -33 0 -112 78 -131 128 -21 57 -22 251 -2 290 8 15 123 135 255 267 l241
240 0 327 0 327 -46 30 c-25 17 -55 31 -68 31 -12 0 -27 5 -33 11 -11 11 -99
7 -165 -8 -83 -19 -177 -116 -197 -204 -6 -24 -11 -90 -11 -146 0 -95 -2 -104
-26 -132 -23 -28 -31 -31 -63 -25 -62 10 -125 37 -151 65 -14 14 -54 58 -89
98 -43 48 -71 71 -86 71 -27 0 -82 58 -91 97 -8 31 19 88 53 111 29 18 106 11
133 -13 11 -10 21 -38 25 -68 5 -38 17 -64 43 -97 48 -60 73 -85 98 -98 21
-11 21 -9 27 81 9 121 36 191 106 268 66 73 142 114 248 133 80 13 111 13 198
-6z m-48 -433 c33 -33 35 -39 30 -81 -3 -27 -13 -54 -26 -68 -18 -19 -21 -35
-21 -100 l0 -77 -100 -104 c-61 -64 -100 -113 -100 -125 0 -47 -71 -110 -123
-110 -59 0 -117 65 -117 133 0 51 52 96 122 106 50 7 61 13 122 71 65 63 66
65 66 117 0 41 -4 54 -19 62 -10 6 -28 29 -39 53 l-21 42 20 35 c29 52 75 81
127 81 37 0 50 -6 79 -35z m-857 -441 c34 -17 90 -73 100 -100 15 -39 6 -169
-14 -205 -25 -46 -89 -96 -139 -110 -33 -9 -53 -8 -103 6 -66 18 -76 25 -122
93 -38 57 -42 130 -11 201 24 57 85 117 126 127 16 3 33 7 38 9 19 5 100 -8
125 -21z"/>
<path d="M5525 7207 c-17 -7 -47 -25 -68 -41 l-37 -28 0 -357 0 -357 -177
-180 c-98 -98 -213 -216 -255 -260 l-78 -82 0 -63 c0 -143 30 -174 173 -181
69 -4 93 -9 116 -26 l28 -21 -4 43 c-7 55 27 111 75 127 29 9 40 7 86 -15 38
-19 69 -26 111 -26 l58 0 94 -93 c86 -84 94 -96 98 -135 2 -25 14 -57 28 -75
31 -42 39 -76 27 -118 -8 -28 -7 -36 7 -46 23 -18 81 -16 99 2 9 8 27 18 42
21 63 15 125 102 124 172 -2 56 1 62 55 95 61 39 104 101 139 203 21 61 14
118 -21 190 -26 53 -29 56 -59 51 -17 -2 -46 -11 -64 -18 -30 -13 -34 -12 -59
13 -21 22 -27 37 -27 77 -1 77 31 92 131 65 36 -10 77 43 107 136 31 95 31 88
5 171 -24 77 -59 124 -134 179 l-52 38 -6 82 c-6 86 -33 156 -83 213 -22 26
-119 77 -147 77 -7 0 -32 27 -55 60 -24 33 -48 60 -52 60 -5 0 -17 8 -27 19
-31 32 -145 48 -198 28z m208 -323 c74 -37 89 -109 37 -178 l-30 -40 0 -160 0
-161 -139 -140 c-139 -139 -161 -168 -161 -206 0 -34 -28 -76 -59 -89 -84 -34
-174 60 -149 157 10 39 42 63 84 63 27 0 49 18 158 128 70 70 131 134 136 142
5 8 10 72 10 142 0 124 -1 128 -30 175 -16 26 -30 54 -30 62 0 32 41 83 83
101 51 24 51 24 90 4z m312 -410 c40 -19 68 -78 59 -124 -9 -41 -60 -90 -95
-90 -21 0 -49 -23 -131 -106 -56 -58 -106 -114 -110 -124 -4 -10 -3 -42 1 -70
9 -53 12 -59 141 -191 30 -30 60 -51 86 -58 64 -17 84 -42 84 -107 0 -60 -15
-85 -63 -103 -49 -19 -77 -13 -113 23 -26 26 -34 42 -34 71 0 33 -10 47 -115
154 l-115 118 0 109 0 109 88 91 c137 142 152 161 152 195 0 34 13 64 43 97
25 27 74 29 122 6z"/>
<path d="M5386 5589 c-44 -29 -51 -31 -84 -21 -20 6 -38 10 -40 7 -2 -2 5 -17
17 -33 17 -24 21 -45 21 -107 0 -90 6 -104 62 -142 56 -37 161 -45 214 -17 33
18 34 20 28 67 -6 40 -3 53 15 77 11 16 21 37 21 47 0 10 -30 48 -66 86 -59
59 -71 67 -104 67 -24 0 -52 -10 -84 -31z"/>
<path d="M5711 4127 c-24 -12 -87 -63 -140 -114 -99 -93 -200 -157 -279 -174
-175 -39 -243 -43 -332 -19 -25 6 -61 14 -80 17 -19 2 -54 13 -77 24 -24 10
-48 19 -55 19 -7 0 -24 9 -38 20 -14 11 -29 20 -35 20 -5 0 -43 27 -84 60 -41
33 -82 60 -91 60 -9 0 -21 5 -27 11 -6 6 -28 9 -50 6 -156 -19 -291 -40 -305
-48 -9 -5 -26 -9 -38 -9 -47 0 -363 -116 -380 -140 -3 -4 -22 -15 -42 -25 -21
-9 -38 -21 -38 -26 0 -5 -5 -9 -11 -9 -31 0 -174 -136 -273 -260 -17 -22 -88
-148 -115 -205 -13 -27 -27 -58 -32 -67 -5 -10 -9 -27 -9 -37 0 -11 -4 -22 -9
-25 -4 -3 -11 -27 -14 -53 -4 -27 -9 -68 -13 -92 -9 -62 13 -183 42 -236 28
-50 67 -85 128 -118 l41 -22 1800 0 1800 0 40 22 c56 31 115 90 145 143 23 42
25 55 24 170 -1 129 -16 199 -65 308 -10 23 -19 47 -19 53 0 5 -18 37 -40 70
-22 33 -40 63 -40 66 0 3 -25 37 -56 74 -96 118 -225 217 -387 296 -82 40
-237 94 -327 112 -25 5 -76 17 -115 25 -38 9 -88 16 -109 16 -22 0 -53 4 -70
9 -17 5 -44 13 -60 18 -21 6 -32 17 -37 37 -14 52 -56 60 -128 23z m144 -267
c39 -6 90 -15 115 -20 25 -6 70 -14 101 -19 121 -19 294 -75 414 -133 145 -71
146 -72 228 -148 73 -68 171 -202 197 -270 7 -19 17 -39 22 -44 4 -6 8 -22 8
-36 0 -14 4 -30 8 -36 15 -16 32 -90 32 -136 0 -43 -22 -87 -55 -110 -5 -4
-803 -8 -1772 -8 l-1762 0 -25 33 c-21 28 -26 45 -26 95 0 95 72 291 136 372
128 160 215 235 346 298 48 23 93 42 100 42 7 0 40 9 73 19 112 36 201 61 221
61 10 0 59 10 107 21 l88 22 87 -59 c47 -33 98 -65 112 -71 14 -7 32 -17 40
-22 61 -37 187 -80 275 -94 143 -21 365 -8 432 27 18 9 39 16 47 16 37 0 188
97 266 170 48 45 59 51 85 46 17 -3 62 -11 100 -16z"/>
<path d="M951 2081 c-83 -22 -170 -125 -171 -204 -1 -84 70 -183 148 -207 20
-6 46 -15 57 -20 11 -5 38 -14 60 -20 22 -7 57 -23 78 -36 34 -22 37 -28 37
-69 0 -52 -25 -81 -77 -91 -65 -12 -120 3 -221 62 l-32 19 -35 -40 c-19 -22
-34 -44 -35 -48 0 -14 54 -58 101 -82 25 -13 80 -28 122 -34 133 -19 231 18
287 106 26 40 30 57 30 112 -1 55 -5 72 -28 106 -33 47 -95 93 -143 105 -74
18 -155 53 -181 78 -58 54 -27 132 58 148 40 7 124 -17 167 -47 27 -20 29 -20
48 -3 10 9 27 32 38 50 18 30 18 33 3 47 -9 8 -39 27 -66 41 -54 29 -182 43
-245 27z"/>
<path d="M4760 2081 c-83 -18 -171 -87 -213 -166 -63 -118 -62 -320 2 -434 54
-97 131 -151 244 -172 178 -33 338 72 396 262 16 50 14 188 -4 254 -27 104
-95 190 -183 232 -57 27 -175 39 -242 24z m164 -131 c115 -52 168 -222 115
-367 -94 -255 -396 -168 -399 114 -1 110 55 216 133 253 54 25 97 25 151 0z"/>
<path d="M1472 1703 l3 -378 53 -8 c84 -14 82 -19 82 239 0 129 4 224 9 224
11 0 55 -71 123 -200 10 -19 22 -42 27 -50 4 -8 15 -28 24 -45 20 -38 38 -38
57 0 65 131 172 315 182 315 4 0 8 -108 8 -239 0 -265 -4 -251 70 -251 20 0
43 6 49 14 8 9 11 118 9 382 l-3 369 -71 3 -71 3 -30 -58 c-32 -61 -93 -177
-134 -253 -13 -25 -30 -45 -38 -45 -7 0 -28 27 -45 60 -75 142 -136 256 -148
275 -11 17 -23 20 -86 20 l-72 0 2 -377z"/>
<path d="M2572 2055 c-7 -14 -12 -34 -12 -45 0 -10 -4 -22 -10 -25 -5 -3 -16
-27 -24 -53 -8 -26 -29 -85 -46 -132 -18 -47 -36 -96 -40 -110 -19 -57 -89
-248 -104 -282 -9 -21 -16 -49 -16 -62 0 -21 6 -26 36 -32 19 -3 49 -2 66 2
28 8 34 17 56 84 13 41 29 81 34 88 8 9 46 12 147 10 l136 -3 22 -45 c12 -25
22 -54 23 -65 0 -11 9 -31 19 -44 16 -21 26 -24 80 -24 34 1 64 3 66 5 4 3 -8
37 -66 198 -11 30 -26 73 -34 95 -7 22 -32 92 -56 155 -23 63 -56 158 -75 210
l-33 95 -79 3 c-76 3 -79 2 -90 -23z m107 -197 c5 -18 25 -76 44 -130 20 -53
33 -99 30 -102 -8 -8 -193 -8 -193 0 0 4 18 59 41 123 23 64 43 122 45 129 6
22 23 12 33 -20z"/>
<path d="M3147 2073 c-9 -8 -9 -715 -1 -737 7 -17 81 -31 119 -22 l25 6 0 124
c0 144 4 152 75 142 35 -6 51 -15 70 -40 14 -18 25 -35 25 -38 0 -3 24 -45 54
-94 l53 -89 83 -3 c99 -3 99 -14 -6 144 -56 84 -74 118 -69 133 3 12 13 21 22
21 27 0 82 49 105 93 32 62 31 186 -3 242 -36 62 -57 79 -131 106 -45 16 -79
19 -234 19 -99 0 -184 -3 -187 -7z m345 -129 c21 -4 49 -18 63 -32 21 -21 25
-34 25 -83 0 -53 -3 -61 -34 -92 -36 -36 -78 -47 -177 -47 -81 0 -79 -3 -79
129 0 65 3 121 7 124 8 9 145 9 195 1z"/>
<path d="M3822 2013 l3 -68 108 -3 107 -3 0 -304 c0 -291 1 -305 19 -315 27
-14 104 -13 119 2 9 9 12 93 12 315 l0 302 108 3 107 3 0 65 0 65 -293 3 -293
2 3 -67z"/>
<path d="M5367 2073 c-4 -3 -7 -172 -7 -374 0 -360 0 -369 20 -379 12 -6 42
-10 68 -8 l47 3 5 130 5 130 61 3 61 3 54 -91 c30 -50 64 -108 77 -130 l23
-40 85 0 c66 0 83 3 78 13 -5 6 -43 66 -86 131 -44 65 -78 126 -76 135 2 9 14
17 26 19 32 5 112 83 112 110 0 11 5 24 10 27 15 10 12 111 -6 164 -20 62 -73
113 -147 140 -51 18 -79 21 -231 21 -95 0 -176 -3 -179 -7z m361 -134 c38 -13
72 -64 72 -107 0 -38 -32 -95 -67 -118 -34 -22 -195 -33 -218 -14 -12 10 -15
37 -15 125 0 61 3 115 7 118 11 11 187 8 221 -4z"/>
<path d="M6120 1700 l0 -380 164 0 c159 0 166 1 237 30 86 35 146 89 186 169
26 52 28 64 28 181 0 103 -4 134 -20 170 -43 101 -100 149 -220 187 -60 19
-92 23 -222 23 l-153 0 0 -380z m306 242 c87 -13 147 -78 163 -177 11 -74 -2
-165 -32 -218 -25 -45 -90 -87 -133 -87 -17 0 -35 -5 -41 -11 -5 -5 -34 -9
-64 -7 l-54 3 -3 249 c-2 193 1 252 10 258 12 8 29 7 154 -10z"/>
<path d="M6900 1701 l0 -379 23 -6 c29 -8 455 -8 485 0 20 6 22 13 22 65 l0
59 -187 2 -188 3 -3 84 c-2 49 1 88 7 94 7 7 51 10 110 8 54 -1 120 1 145 4
l46 7 0 59 0 59 -155 0 -155 0 0 90 c0 50 1 91 3 92 1 1 85 4 187 7 l185 6 0
60 0 60 -262 3 -263 2 0 -379z"/>
<path d="M7610 1701 c0 -418 -4 -391 63 -391 78 0 77 -1 77 129 0 64 4 122 9
130 9 14 98 20 118 8 4 -3 42 -62 83 -131 l75 -126 83 0 c45 0 82 2 82 5 0 2
-22 37 -48 77 -66 99 -122 187 -122 193 0 3 22 16 50 30 32 16 60 40 77 67 25
37 28 49 27 132 0 133 -36 188 -152 233 -51 20 -76 22 -239 22 l-183 1 0 -379z
m405 219 c30 -28 42 -98 25 -139 -6 -16 -24 -41 -40 -56 -25 -24 -37 -27 -124
-32 -127 -8 -126 -8 -126 122 0 57 3 111 7 121 5 15 19 16 120 12 101 -5 117
-8 138 -28z"/>
<path d="M8596 2048 c-8 -18 -23 -58 -34 -88 -21 -59 -52 -145 -82 -225 -10
-27 -27 -76 -39 -107 -11 -32 -30 -84 -42 -115 -11 -32 -29 -80 -40 -107 -32
-82 -30 -86 51 -86 l69 0 11 41 c6 23 15 49 20 58 5 9 14 31 20 49 l12 32 138
0 c104 0 140 -3 149 -14 6 -7 21 -42 32 -77 12 -35 26 -70 31 -76 15 -18 138
-18 138 0 0 8 -14 52 -31 98 -17 46 -34 95 -39 109 -5 14 -22 63 -40 110 -17
47 -40 110 -51 140 -12 30 -24 69 -28 85 -4 17 -15 44 -24 62 -10 18 -17 39
-17 48 0 9 -9 34 -20 55 l-20 40 -75 0 -75 0 -14 -32z m105 -190 c17 -31 79
-208 79 -224 0 -11 -21 -14 -95 -14 -73 0 -95 3 -95 13 0 8 14 52 31 98 17 46
33 93 36 104 6 19 22 45 29 45 2 0 9 -10 15 -22z"/>
<path d="M9167 2074 c-9 -9 -8 -657 1 -709 l7 -40 65 0 65 0 0 375 0 375 -65
3 c-36 2 -69 0 -73 -4z"/>
</g>
</svg>
